{
    "asset" : {
        "generator" : "Khronos glTF Blender I/O v1.5.17",
        "version" : "2.0"
    },
    "scene" : 0,
    "scenes" : [
        {
            "name" : "Scene",
            "nodes" : [
                0
            ]
        }
    ],
    "nodes" : [
        {
            "mesh" : 0,
            "name" : "candyBucket"
        }
    ],
    "materials" : [
        {
            "name" : "White.005",
            "pbrMetallicRoughness" : {
                "baseColorFactor" : [
                    0.799102783203125,
                    0.799102783203125,
                    0.799102783203125,
                    1
                ],
                "metallicFactor" : 0,
                "roughnessFactor" : 0.5
            }
        },
        {
            "name" : "Purple.001",
            "pbrMetallicRoughness" : {
                "baseColorFactor" : [
                    0.2597089111804962,
                    0.052060261368751526,
                    0.5798950791358948,
                    1
                ],
                "metallicFactor" : 0,
                "roughnessFactor" : 0.20000000298023224
            }
        },
        {
            "name" : "Blue.001",
            "pbrMetallicRoughness" : {
                "baseColorFactor" : [
                    0.1268673837184906,
                    0.4590684771537781,
                    1,
                    1
                ],
                "metallicFactor" : 0,
                "roughnessFactor" : 0.20000000298023224
            }
        },
        {
            "name" : "Yellow.004",
            "pbrMetallicRoughness" : {
                "baseColorFactor" : [
                    1,
                    0.5052202939987183,
                    0.017695415765047073,
                    1
                ],
                "metallicFactor" : 0,
                "roughnessFactor" : 0.20000000298023224
            }
        },
        {
            "name" : "Beige.001",
            "pbrMetallicRoughness" : {
                "baseColorFactor" : [
                    0.7029160857200623,
                    0.4253237545490265,
                    0.20689357817173004,
                    1
                ],
                "metallicFactor" : 0,
                "roughnessFactor" : 0.5
            }
        },
        {
            "name" : "Orange.003",
            "pbrMetallicRoughness" : {
                "baseColorFactor" : [
                    1,
                    0.16606298089027405,
                    0.017658168449997902,
                    1
                ],
                "metallicFactor" : 0,
                "roughnessFactor" : 0.20000000298023224
            }
        }
    ],
    "meshes" : [
        {
            "name" : "Cylinder.087",
            "primitives" : [
                {
                    "attributes" : {
                        "POSITION" : 0,
                        "NORMAL" : 1,
                        "TEXCOORD_0" : 2
                    },
                    "indices" : 3,
                    "material" : 0
                },
                {
                    "attributes" : {
                        "POSITION" : 4,
                        "NORMAL" : 5,
                        "TEXCOORD_0" : 6
                    },
                    "indices" : 7,
                    "material" : 1
                },
                {
                    "attributes" : {
                        "POSITION" : 8,
                        "NORMAL" : 9,
                        "TEXCOORD_0" : 10
                    },
                    "indices" : 11,
                    "material" : 2
                },
                {
                    "attributes" : {
                        "POSITION" : 12,
                        "NORMAL" : 13,
                        "TEXCOORD_0" : 14
                    },
                    "indices" : 15,
                    "material" : 3
                },
                {
                    "attributes" : {
                        "POSITION" : 16,
                        "NORMAL" : 17,
                        "TEXCOORD_0" : 18
                    },
                    "indices" : 19,
                    "material" : 4
                },
                {
                    "attributes" : {
                        "POSITION" : 20,
                        "NORMAL" : 21,
                        "TEXCOORD_0" : 22
                    },
                    "indices" : 23,
                    "material" : 5
                }
            ]
        }
    ],
    "accessors" : [
        {
            "bufferView" : 0,
            "componentType" : 5126,
            "count" : 494,
            "max" : [
                0.5185567140579224,
                1.010829210281372,
                0.46097877621650696
            ],
            "min" : [
                -0.5185567140579224,
                0.26588571071624756,
                -0.3244343101978302
            ],
            "type" : "VEC3"
        },
        {
            "bufferView" : 1,
            "componentType" : 5126,
            "count" : 494,
            "type" : "VEC3"
        },
        {
            "bufferView" : 2,
            "componentType" : 5126,
            "count" : 494,
            "type" : "VEC2"
        },
        {
            "bufferView" : 3,
            "componentType" : 5123,
            "count" : 1212,
            "type" : "SCALAR"
        },
        {
            "bufferView" : 4,
            "componentType" : 5126,
            "count" : 349,
            "max" : [
                0.22557665407657623,
                0.6137658953666687,
                0.4475671350955963
            ],
            "min" : [
                -0.29179704189300537,
                0.2696693539619446,
                -0.4310991168022156
            ],
            "type" : "VEC3"
        },
        {
            "bufferView" : 5,
            "componentType" : 5126,
            "count" : 349,
            "type" : "VEC3"
        },
        {
            "bufferView" : 6,
            "componentType" : 5126,
            "count" : 349,
            "type" : "VEC2"
        },
        {
            "bufferView" : 7,
            "componentType" : 5123,
            "count" : 756,
            "type" : "SCALAR"
        },
        {
            "bufferView" : 8,
            "componentType" : 5126,
            "count" : 450,
            "max" : [
                0.5392773747444153,
                0.49333226680755615,
                0.5392773747444153
            ],
            "min" : [
                -0.5392773747444153,
                -0.4326344132423401,
                -0.5392772555351257
            ],
            "type" : "VEC3"
        },
        {
            "bufferView" : 9,
            "componentType" : 5126,
            "count" : 450,
            "type" : "VEC3"
        },
        {
            "bufferView" : 10,
            "componentType" : 5126,
            "count" : 450,
            "type" : "VEC2"
        },
        {
            "bufferView" : 11,
            "componentType" : 5123,
            "count" : 1218,
            "type" : "SCALAR"
        },
        {
            "bufferView" : 12,
            "componentType" : 5126,
            "count" : 142,
            "max" : [
                0.33646059036254883,
                0.5860973596572876,
                0.2138247936964035
            ],
            "min" : [
                -0.35213974118232727,
                0.2459394782781601,
                -0.40612655878067017
            ],
            "type" : "VEC3"
        },
        {
            "bufferView" : 13,
            "componentType" : 5126,
            "count" : 142,
            "type" : "VEC3"
        },
        {
            "bufferView" : 14,
            "componentType" : 5126,
            "count" : 142,
            "type" : "VEC2"
        },
        {
            "bufferView" : 15,
            "componentType" : 5123,
            "count" : 504,
            "type" : "SCALAR"
        },
        {
            "bufferView" : 16,
            "componentType" : 5126,
            "count" : 80,
            "max" : [
                0.00018297135829925537,
                0.7376120090484619,
                -0.17852097749710083
            ],
            "min" : [
                -0.1766546219587326,
                0.40938520431518555,
                -0.4900381565093994
            ],
            "type" : "VEC3"
        },
        {
            "bufferView" : 17,
            "componentType" : 5126,
            "count" : 80,
            "type" : "VEC3"
        },
        {
            "bufferView" : 18,
            "componentType" : 5126,
            "count" : 80,
            "type" : "VEC2"
        },
        {
            "bufferView" : 19,
            "componentType" : 5123,
            "count" : 132,
            "type" : "SCALAR"
        },
        {
            "bufferView" : 20,
            "componentType" : 5126,
            "count" : 72,
            "max" : [
                0.40622225403785706,
                0.4124790132045746,
                0.40622225403785706
            ],
            "min" : [
                -0.40622225403785706,
                0.2818843424320221,
                -0.4062221646308899
            ],
            "type" : "VEC3"
        },
        {
            "bufferView" : 21,
            "componentType" : 5126,
            "count" : 72,
            "type" : "VEC3"
        },
        {
            "bufferView" : 22,
            "componentType" : 5126,
            "count" : 72,
            "type" : "VEC2"
        },
        {
            "bufferView" : 23,
            "componentType" : 5123,
            "count" : 354,
            "type" : "SCALAR"
        }
    ],
    "bufferViews" : [
        {
            "buffer" : 0,
            "byteLength" : 5928,
            "byteOffset" : 0
        },
        {
            "buffer" : 0,
            "byteLength" : 5928,
            "byteOffset" : 5928
        },
        {
            "buffer" : 0,
            "byteLength" : 3952,
            "byteOffset" : 11856
        },
        {
            "buffer" : 0,
            "byteLength" : 2424,
            "byteOffset" : 15808
        },
        {
            "buffer" : 0,
            "byteLength" : 4188,
            "byteOffset" : 18232
        },
        {
            "buffer" : 0,
            "byteLength" : 4188,
            "byteOffset" : 22420
        },
        {
            "buffer" : 0,
            "byteLength" : 2792,
            "byteOffset" : 26608
        },
        {
            "buffer" : 0,
            "byteLength" : 1512,
            "byteOffset" : 29400
        },
        {
            "buffer" : 0,
            "byteLength" : 5400,
            "byteOffset" : 30912
        },
        {
            "buffer" : 0,
            "byteLength" : 5400,
            "byteOffset" : 36312
        },
        {
            "buffer" : 0,
            "byteLength" : 3600,
            "byteOffset" : 41712
        },
        {
            "buffer" : 0,
            "byteLength" : 2436,
            "byteOffset" : 45312
        },
        {
            "buffer" : 0,
            "byteLength" : 1704,
            "byteOffset" : 47748
        },
        {
            "buffer" : 0,
            "byteLength" : 1704,
            "byteOffset" : 49452
        },
        {
            "buffer" : 0,
            "byteLength" : 1136,
            "byteOffset" : 51156
        },
        {
            "buffer" : 0,
            "byteLength" : 1008,
            "byteOffset" : 52292
        },
        {
            "buffer" : 0,
            "byteLength" : 960,
            "byteOffset" : 53300
        },
        {
            "buffer" : 0,
            "byteLength" : 960,
            "byteOffset" : 54260
        },
        {
            "buffer" : 0,
            "byteLength" : 640,
            "byteOffset" : 55220
        },
        {
            "buffer" : 0,
            "byteLength" : 264,
            "byteOffset" : 55860
        },
        {
            "buffer" : 0,
            "byteLength" : 864,
            "byteOffset" : 56124
        },
        {
            "buffer" : 0,
            "byteLength" : 864,
            "byteOffset" : 56988
        },
        {
            "buffer" : 0,
            "byteLength" : 576,
            "byteOffset" : 57852
        },
        {
            "buffer" : 0,
            "byteLength" : 708,
            "byteOffset" : 58428
        }
    ],
    "buffers" : [
        {
            "byteLength" : 59136,
            "uri" : "data:application/octet-stream;base64,"
        }
    ]
}
